<svg xmlns="http://www.w3.org/2000/svg" version="1.1" xmlns:xlink="http://www.w3.org/1999/xlink" xmlns:svgjs="http://svgjs.dev/svgjs" width="34" height="34" viewBox="0 0 1000 477"><g transform="matrix(1,0,0,1,-0.6056348047761162,-0.528059436732434)"><svg viewBox="0 0 396 189" data-background-color="#ffffff" preserveAspectRatio="xMidYMid meet" height="477" width="1000" xmlns="http://www.w3.org/2000/svg" xmlns:xlink="http://www.w3.org/1999/xlink"><g id="tight-bounds" transform="matrix(1,0,0,1,0.24008861730862918,0.20935175536479278)"><svg viewBox="0 0 395.52 188.58117694235585" height="188.58117694235585" width="395.52"><g><svg viewBox="0 0 395.52 188.58117694235585" height="188.58117694235585" width="395.52"><g><svg viewBox="0 0 395.52 188.58117694235585" height="188.58117694235585" width="395.52"><g><svg viewBox="0 0 395.52 188.58117694235585" height="188.58117694235585" width="395.52"><g><svg viewBox="0 0 395.52 188.58117694235585" height="188.58117694235585" width="395.52"><path d="M394.594 40.447C392.735 20.872 387.435 15.431 387.435 15.431 371.165-4.731 350.86-0.386 332.619 2.511 300.414 2.629 268.339 6.935 236.208 9.245 168.767 9.597 100.749 3.803 33.643 18.093 27.339 22.478-6.54 18.954 1.121 42.953 3.129 52.936 10.456 64.015 10.232 73.176 11.236 74.781 12.631 71.101 13.226 73.411 15.309 79.636 18.711 76.699 21.501 80.379 17.614 90.206 20.403 98.388 23.062 106.962 18.377 109.193 12.371 108.136 9.675 115.535 9.396 120.899 7.89 119.881 6.235 119.646 5.026 119.49 2.59 120.077 2.999 121.76 4.394 127.515-1.594 130.843 2.162 136.48-0.422 142.588 3.948 147.873 3.353 154.489 3.278 155.82 3.687 156.955 4.338 157.269 7.22 158.952 3.018 162.241 3.464 165.803 33.029 190.154 65.104 173.32 95.394 184.517 103.259 176.687 97.346 187.296 100.489 185.652 102.943 183.734 104.728 191.681 107.499 187.179 107.927 185.887 107.276 182.833 108.8 183.42 109.6 183.734 110.307 183.655 110.418 181.854 110.586 179.153 109.117 180.837 108.726 179.427 112.947 172.302 111.906 189.254 115.866 188.549 115.68 186.474 114.528 183.499 116.889 183.89 119.232 180.915 119.306 178.448 121.389 185.143 121.463 186.591 121.835 187.609 122.43 188.314 128.938 181.032 135.409 190.898 142.233 187.609 146.417 184.008 150.433 189.567 154.672 188.197 156.16 187.1 157.666 185.143 159.098 188.431 176.632 189.136 195.319 186.2 211.943 188.549 256.364 184.164 303.835 190.35 350.674 184.556 361.719 182.324 373.192 179.153 383.958 176.608 383.958 176.608 392.679 169.64 392.679 138.32S394.538 110.916 394.817 85.978C395.096 61.04 396.398 60.022 394.538 40.447Z" opacity="1" fill="#0d9261" data-fill-palette-color="tertiary"></path><g transform="matrix(1,0,0,1,55.76832,26.230666666666668)"><svg width="283.98335999999995" viewBox="0.4000000059604645 -24.799999237060547 53.19999694824219 25.5" height="136.11984360902252" data-palette-color="#ffffff"><path d="M26.1-18.85L26.1-18.85Q26.1-17.2 25.1-15.8L25.1-15.8 16.9-15.8Q17.3-16.1 17.3-16.8 17.3-17.5 16.5-17.93 15.7-18.35 14.45-18.35L14.45-18.35Q10.7-18.35 10.7-16.05L10.7-16.05Q10.7-15.15 12.1-14.75 13.5-14.35 15.5-14.1 17.5-13.85 19.5-13.38 21.5-12.9 22.9-11.5 24.3-10.1 24.3-7.75L24.3-7.75Q24.3-3.6 20.98-1.45 17.65 0.7 11.3 0.7 4.95 0.7 2.4-1.35L2.4-1.35Q0.4-2.95 0.4-5.75L0.4-5.75Q0.4-6.55 0.55-7.4L0.55-7.4 8.9-7.5Q8.8-6.8 9.73-6.28 10.65-5.75 12.45-5.75 14.25-5.75 15.05-6.13 15.85-6.5 15.85-7.55L15.85-7.55Q15.85-8.25 14.45-8.53 13.05-8.8 11.03-9 9-9.2 6.98-9.65 4.95-10.1 3.55-11.55 2.15-13 2.15-15.35L2.15-15.35Q2.15-19.9 5.68-22.35 9.2-24.8 15.85-24.8L15.85-24.8Q26.1-24.8 26.1-18.85ZM38.65 0.7L38.65 0.7Q28.25 0.7 28.25-6.5L28.25-6.5Q28.25-7.5 28.45-8.65L28.45-8.65 29.5-14.85Q30.3-19.65 33.87-22.2 37.45-24.75 42.95-24.8L42.95-24.8Q53.6-24.8 53.6-17.4L53.6-17.4Q53.6-15.8 53.22-14.53 52.85-13.25 52.45-12.8L52.45-12.8 52.05-12.3 43.55-12.3Q44.8-13.4 44.8-14.9L44.8-14.9Q44.8-17.6 42.1-17.6L42.1-17.6Q40.5-17.6 39.35-16.65 38.2-15.7 37.85-13.75L37.85-13.75 37.2-10.1Q37.1-9.6 37.1-9.15L37.1-9.15Q37.1-6.5 40.4-6.5L40.4-6.5Q41.5-6.5 42.37-7.2 43.25-7.9 43.4-8.75L43.4-8.75 51.7-8.65Q50.05 0.7 38.65 0.7Z" opacity="1" transform="matrix(1,0,0,1,0,0)" fill="#ffffff" class="undefined-text-0" data-fill-palette-color="quaternary" id="text-0"></path></svg></g></svg></g></svg></g></svg></g><g></g></svg></g><defs></defs></svg><rect width="395.52" height="188.58117694235585" fill="none" stroke="none" visibility="hidden"></rect></g></svg></g></svg>